<mxfile modified="2023-03-14T11:36:45.540Z" host="drawio-plugin" agent="5.0 (Windows NT 6.2; Win64; x64) AppleWebKit/537.36 (KHTML, like Gecko) Chrome/89.0.4389.114 Safari/537.36" etag="uoPUCEnJVajusejLxRIt" version="20.5.3" type="embed"><diagram id="Ht1M8jgEwFfnCIfOTk4-" name="Page-1"><mxGraphModel dx="740" dy="425" grid="1" gridSize="10" guides="1" tooltips="1" connect="1" arrows="1" fold="1" page="1" pageScale="1" pageWidth="1169" pageHeight="827" math="0" shadow="0"><root><mxCell id="0"/><mxCell id="1" parent="0"/></root></mxGraphModel></diagram></mxfile>